<svg width="144" height="38" viewBox="0 0 144 38" fill="none" xmlns="http://www.w3.org/2000/svg">
<path d="M131.047 36.9999C130.747 36.9999 130.527 36.8199 130.527 36.5399C130.527 36.2199 130.707 36.0999 130.927 35.9799C131.147 35.8599 131.367 35.6999 131.527 35.3199L136.287 23.7999C136.387 23.5399 136.587 23.3999 136.847 23.3999H137.507C137.767 23.3999 137.947 23.5399 138.047 23.7999L142.767 35.3199C142.907 35.6799 143.147 35.8399 143.367 35.9599C143.587 36.0799 143.767 36.1999 143.767 36.5399C143.767 36.8199 143.567 36.9999 143.247 36.9999H140.767C140.447 36.9999 140.247 36.8199 140.247 36.5399C140.247 36.2599 140.387 36.1199 140.547 36.0199C140.767 35.8799 140.927 35.7599 140.747 35.3199L139.727 32.7399H133.587L132.547 35.2999C132.367 35.7199 132.587 35.8599 132.847 35.9999C133.047 36.0999 133.267 36.2199 133.267 36.5399C133.267 36.8199 133.067 36.9999 132.767 36.9999H131.047ZM133.967 31.8399H139.387L136.727 25.0799L133.967 31.8399Z" fill="#F5EEE3"/>
<path d="M118.317 36.9999C118.017 36.9999 117.797 36.8399 117.797 36.5399C117.797 36.2199 117.997 36.0799 118.197 35.9399C118.397 35.7999 118.597 35.6399 118.597 35.3399V25.0599C118.597 24.7399 118.397 24.5999 118.197 24.4599C117.997 24.3199 117.797 24.1599 117.797 23.8599C117.797 23.5599 118.017 23.3999 118.317 23.3999H124.617C127.277 23.3999 129.017 24.9199 129.017 27.2799C129.017 29.3599 127.637 30.7999 125.337 31.1199L128.477 35.3999C128.857 35.9199 129.237 36.0999 129.517 36.1799C129.757 36.2399 129.897 36.3199 129.897 36.5599C129.897 36.8799 129.497 37.1999 128.857 37.1999C128.057 37.1999 127.197 36.7999 126.497 35.8399L123.157 31.1999H120.477V35.3399C120.477 35.6399 120.637 35.7999 120.857 35.9399C121.097 36.0999 121.277 36.2199 121.277 36.5399C121.277 36.8399 121.077 36.9999 120.757 36.9999H118.317ZM124.077 24.2999H120.477V30.3199H123.897C126.097 30.3199 127.137 29.1999 127.137 27.6199C127.137 26.0599 126.097 24.2999 124.077 24.2999Z" fill="#F5EEE3"/>
<path d="M109.175 37.2002C105.175 37.2002 102.535 34.4202 102.535 30.2002C102.535 25.9802 105.175 23.2002 109.175 23.2002C113.155 23.2002 115.795 25.9802 115.795 30.2002C115.795 34.4202 113.155 37.2002 109.175 37.2002ZM109.775 36.2802C112.175 36.2802 113.995 34.3002 113.995 31.0802C113.995 27.4802 111.995 24.1202 108.575 24.1202C106.155 24.1202 104.335 26.1002 104.335 29.3202C104.335 33.1202 106.535 36.2802 109.775 36.2802Z" fill="#F5EEE3"/>
<path d="M89.7036 36.9999C89.4036 36.9999 89.1836 36.8399 89.1836 36.5399C89.1836 36.2199 89.3836 36.0799 89.5836 35.9399C89.7836 35.7999 89.9836 35.6399 89.9836 35.3399V25.0599C89.9836 24.7399 89.7836 24.5999 89.5836 24.4599C89.3836 24.3199 89.1836 24.1599 89.1836 23.8599C89.1836 23.5599 89.4036 23.3999 89.7036 23.3999H95.8836C98.6436 23.3999 100.344 24.7199 100.344 26.8199C100.344 28.2799 99.5436 29.3399 97.8236 29.8199C99.8836 30.2599 100.944 31.4999 100.944 33.2799C100.944 35.5999 99.1236 36.9999 96.1436 36.9999H89.7036ZM95.5236 24.2999H91.8636V29.4799H95.5236C97.5236 29.4799 98.4636 28.4599 98.4636 27.1399C98.4636 25.7799 97.4436 24.2999 95.5236 24.2999ZM96.0236 30.3599H91.8636V35.2599C92.9436 35.8599 94.1836 36.1599 95.2836 36.1599C97.9436 36.1599 99.0636 34.9999 99.0636 33.4599C99.0636 31.9999 98.0236 30.3599 96.0236 30.3599Z" fill="#F5EEE3"/>
<path d="M80.5298 22.0199C80.3498 22.0199 80.2498 21.9199 80.3298 21.7599L81.4698 19.5999C81.5298 19.4799 81.6298 19.4199 81.7498 19.4199H83.7098C83.9298 19.4199 83.9698 19.5799 83.8298 19.6999L81.1298 21.9199C81.0298 21.9999 80.9698 22.0199 80.8498 22.0199H80.5298ZM75.1098 36.9999C74.8098 36.9999 74.5898 36.8199 74.5898 36.5399C74.5898 36.2199 74.7698 36.0999 74.9898 35.9799C75.2098 35.8599 75.4298 35.6999 75.5898 35.3199L80.3498 23.7999C80.4498 23.5399 80.6498 23.3999 80.9098 23.3999H81.5698C81.8298 23.3999 82.0098 23.5399 82.1098 23.7999L86.8298 35.3199C86.9698 35.6799 87.2098 35.8399 87.4298 35.9599C87.6498 36.0799 87.8298 36.1999 87.8298 36.5399C87.8298 36.8199 87.6298 36.9999 87.3098 36.9999H84.8298C84.5098 36.9999 84.3098 36.8199 84.3098 36.5399C84.3098 36.2599 84.4498 36.1199 84.6098 36.0199C84.8298 35.8799 84.9898 35.7599 84.8098 35.3199L83.7898 32.7399H77.6498L76.6098 35.2999C76.4298 35.7199 76.6498 35.8599 76.9098 35.9999C77.1098 36.0999 77.3298 36.2199 77.3298 36.5399C77.3298 36.8199 77.1298 36.9999 76.8298 36.9999H75.1098ZM78.0298 31.8399H83.4498L80.7898 25.0799L78.0298 31.8399Z" fill="#F5EEE3"/>
<path d="M68.5523 36.9999C68.2523 36.9999 68.0523 36.8399 68.0523 36.5399C68.0523 36.2199 68.2723 36.0799 68.4923 35.9399C68.7123 35.7999 68.9323 35.6399 68.9323 35.3399V24.2999H66.6923C65.9323 24.2999 65.6123 25.0399 65.3523 25.6799C65.1523 26.1799 64.9723 26.5999 64.6323 26.5999C64.3523 26.5999 64.1523 26.3799 64.1523 26.0799V24.0599C64.1523 23.6599 64.4323 23.3999 64.8723 23.3999H74.8723C75.3123 23.3999 75.5723 23.6599 75.5723 24.0599V26.0799C75.5723 26.3799 75.3923 26.5999 75.1123 26.5999C74.7523 26.5999 74.5723 26.1599 74.3723 25.6599C74.1123 25.0199 73.8123 24.2999 73.0523 24.2999H70.8123V35.3399C70.8123 35.6399 71.0323 35.7999 71.2523 35.9399C71.4723 36.0799 71.6923 36.2199 71.6923 36.5399C71.6923 36.8399 71.4923 36.9999 71.1923 36.9999H68.5523Z" fill="#F5EEE3"/>
<path d="M101.109 14.2002C97.1087 14.2002 94.4688 11.4202 94.4688 7.2002C94.4688 2.9802 97.1087 0.200195 101.109 0.200195C105.089 0.200195 107.729 2.9802 107.729 7.2002C107.729 11.4202 105.089 14.2002 101.109 14.2002ZM101.709 13.2802C104.109 13.2802 105.929 11.3002 105.929 8.0802C105.929 4.4802 103.929 1.1202 100.509 1.1202C98.0888 1.1202 96.2688 3.1002 96.2688 6.3202C96.2688 10.1202 98.4688 13.2802 101.709 13.2802Z" fill="#F5EEE3"/>
<path d="M80.7973 13.9999C80.4973 13.9999 80.2773 13.8399 80.2773 13.5399C80.2773 13.2199 80.4773 13.0799 80.6773 12.9399C80.8773 12.7999 81.0773 12.6399 81.0773 12.3399V2.0599C81.0773 1.7399 80.8773 1.5999 80.6773 1.4599C80.4773 1.3199 80.2773 1.1599 80.2773 0.859902C80.2773 0.559901 80.4973 0.399902 80.7973 0.399902L86.2573 0.399902C90.1573 0.399902 92.7173 3.0999 92.7173 7.1999C92.7173 11.3599 90.1573 13.9999 85.9173 13.9999H80.7973ZM85.8573 1.2999L82.9573 1.2999V12.3199C83.8173 12.8599 84.8973 13.1599 85.8173 13.1599C89.1973 13.1599 90.8373 10.6999 90.8373 7.8399C90.8373 4.6999 89.0973 1.2999 85.8573 1.2999Z" fill="#F5EEE3"/>
<path d="M66.4809 13.9999C66.1809 13.9999 65.9609 13.8399 65.9609 13.5399C65.9609 13.2399 66.1409 13.0799 66.3409 12.9399C66.5809 12.7599 66.7609 12.6199 66.7609 12.2799V2.1199C66.7609 1.7799 66.5609 1.6199 66.3409 1.4599C66.1409 1.2999 65.9609 1.1599 65.9609 0.859902C65.9609 0.559901 66.1809 0.399902 66.4809 0.399902L68.3409 0.399902C68.6009 0.399902 68.7809 0.479902 68.9209 0.699903L76.3809 11.6999V2.3599C76.3809 1.8599 76.0609 1.6399 75.7809 1.4399C75.5409 1.2799 75.3409 1.1399 75.3409 0.859902C75.3409 0.559901 75.5609 0.399902 75.8609 0.399902L77.5609 0.399902C77.8609 0.399902 78.0809 0.559901 78.0809 0.859902C78.0809 1.1599 77.9009 1.2999 77.7009 1.4599C77.4809 1.6199 77.2809 1.7799 77.2809 2.1199V13.5199C77.2809 13.8199 77.1209 13.9999 76.8209 13.9999H76.1809C75.9409 13.9999 75.7409 13.9199 75.6009 13.6999L67.6609 2.0399V12.0399C67.6609 12.5399 67.9609 12.7599 68.2609 12.9599C68.4809 13.1199 68.7009 13.2599 68.7009 13.5399C68.7009 13.8399 68.4809 13.9999 68.1809 13.9999H66.4809Z" fill="#F5EEE3"/>
<path d="M51.8872 13.9999C51.5872 13.9999 51.3672 13.8199 51.3672 13.5399C51.3672 13.2199 51.5472 13.0999 51.7672 12.9799C51.9872 12.8599 52.2072 12.6999 52.3672 12.3199L57.1272 0.799902C57.2272 0.539902 57.4272 0.399902 57.6872 0.399902L58.3472 0.399902C58.6072 0.399902 58.7872 0.539902 58.8872 0.799902L63.6072 12.3199C63.7472 12.6799 63.9872 12.8399 64.2072 12.9599C64.4272 13.0799 64.6072 13.1999 64.6072 13.5399C64.6072 13.8199 64.4072 13.9999 64.0872 13.9999H61.6072C61.2872 13.9999 61.0872 13.8199 61.0872 13.5399C61.0872 13.2599 61.2272 13.1199 61.3872 13.0199C61.6072 12.8799 61.7672 12.7599 61.5872 12.3199L60.5672 9.7399H54.4272L53.3872 12.2999C53.2072 12.7199 53.4272 12.8599 53.6872 12.9999C53.8872 13.0999 54.1072 13.2199 54.1072 13.5399C54.1072 13.8199 53.9072 13.9999 53.6072 13.9999H51.8872ZM54.8072 8.8399H60.2272L57.5672 2.0799L54.8072 8.8399Z" fill="#F5EEE3"/>
<path d="M38.4927 13.9999C38.1927 13.9999 37.9727 13.8399 37.9727 13.5399C37.9727 13.2399 38.1527 13.0799 38.3527 12.9399C38.5927 12.7599 38.7727 12.6199 38.7727 12.2799V2.1199C38.7727 1.7799 38.5727 1.6199 38.3527 1.4599C38.1527 1.2999 37.9727 1.1599 37.9727 0.859902C37.9727 0.559901 38.1927 0.399902 38.4927 0.399902L40.3527 0.399902C40.6127 0.399902 40.7927 0.479902 40.9327 0.699903L48.3927 11.6999V2.3599C48.3927 1.8599 48.0727 1.6399 47.7927 1.4399C47.5527 1.2799 47.3527 1.1399 47.3527 0.859902C47.3527 0.559901 47.5727 0.399902 47.8727 0.399902L49.5727 0.399902C49.8727 0.399902 50.0927 0.559901 50.0927 0.859902C50.0927 1.1599 49.9127 1.2999 49.7127 1.4599C49.4927 1.6199 49.2927 1.7799 49.2927 2.1199V13.5199C49.2927 13.8199 49.1327 13.9999 48.8327 13.9999H48.1927C47.9527 13.9999 47.7527 13.9199 47.6127 13.6999L39.6727 2.0399V12.0399C39.6727 12.5399 39.9727 12.7599 40.2727 12.9599C40.4927 13.1199 40.7127 13.2599 40.7127 13.5399C40.7127 13.8399 40.4927 13.9999 40.1927 13.9999H38.4927Z" fill="#F5EEE3"/>
<path d="M25.0356 13.9999C24.7356 13.9999 24.5156 13.8399 24.5156 13.5399C24.5156 13.2199 24.7156 13.0799 24.9156 12.9399C25.1156 12.7999 25.3156 12.6399 25.3156 12.3399V2.0599C25.3156 1.7399 25.1156 1.5999 24.9156 1.4599C24.7156 1.3199 24.5156 1.1599 24.5156 0.859902C24.5156 0.559901 24.7356 0.399902 25.0356 0.399902L31.3356 0.399902C33.9956 0.399902 35.7356 1.9199 35.7356 4.2799C35.7356 6.3599 34.3556 7.7999 32.0556 8.1199L35.1956 12.3999C35.5756 12.9199 35.9556 13.0999 36.2356 13.1799C36.4756 13.2399 36.6156 13.3199 36.6156 13.5599C36.6156 13.8799 36.2156 14.1999 35.5756 14.1999C34.7756 14.1999 33.9156 13.7999 33.2156 12.8399L29.8756 8.1999H27.1956V12.3399C27.1956 12.6399 27.3556 12.7999 27.5756 12.9399C27.8156 13.0999 27.9956 13.2199 27.9956 13.5399C27.9956 13.8399 27.7956 13.9999 27.4756 13.9999H25.0356ZM30.7956 1.2999L27.1956 1.2999V7.3199H30.6156C32.8156 7.3199 33.8556 6.1999 33.8556 4.6199C33.8556 3.0599 32.8156 1.2999 30.7956 1.2999Z" fill="#F5EEE3"/>
<path d="M12.4966 13.9999C12.1966 13.9999 11.9766 13.8399 11.9766 13.5399C11.9766 13.2199 12.1766 13.0799 12.3766 12.9399C12.5766 12.7999 12.7766 12.6399 12.7766 12.3399V2.0599C12.7766 1.7399 12.5766 1.5999 12.3766 1.4599C12.1766 1.3199 11.9766 1.1599 11.9766 0.859902C11.9766 0.559901 12.1966 0.399902 12.4966 0.399902L21.4766 0.399902C21.9166 0.399902 22.1766 0.659901 22.1766 1.0599V2.9799C22.1766 3.2599 21.9966 3.4799 21.7166 3.4799C21.3766 3.4799 21.2166 3.0999 21.0366 2.6199C20.8166 2.0199 20.5366 1.2999 19.7166 1.2999L14.6566 1.2999V6.4799H18.6366C19.1166 6.4799 19.3166 6.1399 19.4966 5.8199C19.6766 5.4999 19.8166 5.2799 20.1366 5.2799C20.4366 5.2799 20.5966 5.4999 20.5966 5.7999V8.0399C20.5966 8.3399 20.4366 8.5599 20.1366 8.5599C19.8166 8.5599 19.6766 8.3399 19.4966 8.0199C19.3166 7.6999 19.1166 7.3599 18.6366 7.3599H14.6566V12.4799C14.6566 12.8599 14.8966 13.0999 15.2766 13.0999H19.8966C20.7166 13.0999 21.0366 12.3399 21.2966 11.6999C21.4966 11.1999 21.6766 10.7999 22.0166 10.7999C22.2966 10.7999 22.4766 11.0199 22.4766 11.3199V13.3399C22.4766 13.7399 22.2166 13.9999 21.7766 13.9999H12.4966Z" fill="#F5EEE3"/>
<path d="M0.641094 13.9999C0.341094 13.9999 0.121094 13.8399 0.121094 13.5399C0.121094 13.2199 0.321094 13.0799 0.521094 12.9399C0.721094 12.7999 0.921094 12.6399 0.921094 12.3399L0.921094 2.0599C0.921094 1.7399 0.721094 1.5999 0.521094 1.4599C0.321094 1.3199 0.121094 1.1599 0.121094 0.859902C0.121094 0.559901 0.341094 0.399902 0.641094 0.399902L9.42109 0.399902C9.86109 0.399902 10.1211 0.659901 10.1211 1.0599V2.9799C10.1211 3.2599 9.94109 3.4799 9.66109 3.4799C9.32109 3.4799 9.16109 3.0999 8.98109 2.6199C8.76109 2.0199 8.48109 1.2999 7.66109 1.2999L2.80109 1.2999L2.80109 6.5799H6.58109C7.06109 6.5799 7.26109 6.2399 7.44109 5.9199C7.62109 5.6199 7.76109 5.3799 8.08109 5.3799C8.38109 5.3799 8.54109 5.5999 8.54109 5.8999V8.1399C8.54109 8.4399 8.38109 8.6599 8.08109 8.6599C7.76109 8.6599 7.62109 8.4199 7.44109 8.1199C7.26109 7.7999 7.06109 7.4599 6.58109 7.4599H2.80109L2.80109 12.3399C2.80109 12.6399 3.04109 12.7999 3.28109 12.9399C3.54109 13.0799 3.72109 13.2199 3.72109 13.5399C3.72109 13.8399 3.52109 13.9999 3.20109 13.9999H0.641094Z" fill="#F5EEE3"/>
</svg>
